<svg t="1755823195317" class="icon" viewBox="0 0 1024 1024" version="1.1" xmlns="http://www.w3.org/2000/svg" p-id="9469" width="512" height="512"><path d="M 666.2 666.8 c -27 27 -53.9 45 -94.4 52.8 c -30.2 5.8 -53.4 3.9 -54.1 3.2 l -32.3 -2.6 v 143.6 h 52.3 v -88.2 c 14.2 -0.6 27.7 -1.9 41.8 -4.5 c 49.5 -9 93.3 -31.5 126.8 -65.6 l 1.3 -1.3 c 9 -9 30.2 -30.2 48.3 -64.3 c 22.5 -42.5 34.1 -107.1 34.1 -160.5 v -9.7 h -52.3 v 9.7 c 0 71.4 -23.2 139.8 -69.5 186.1 l -2 1.3 Z M 361.4 350.1 c 27 -27 53.9 -45 94.4 -52.8 c 30.2 -5.8 53.4 -3.9 54.1 -3.2 l 32.3 2.6 V 153 h -52.3 v 88.2 c -14.2 0.6 -27.7 1.9 -41.8 4.5 c -49.5 9 -93.3 31.5 -126.8 65.6 l -1.3 1.3 c -9 9 -30.2 30.2 -48.3 64.3 c -22.5 42.5 -34.1 107.1 -34.1 160.5 v 9.7 H 290 v -9.7 c 0 -71.4 23.2 -139.8 69.5 -186.1 l 1.9 -1.2 Z" fill="#1bb5c4" p-id="9470"></path><path d="M 640 627.4 c 33.2 -33.2 51.7 -77.5 51.7 -124.3 S 673.2 412 640 378.7 c -33.2 -33.2 -77.5 -51.7 -124.3 -51.7 s -91.1 18.5 -124.3 51.7 s -51.7 77.5 -51.7 124.3 s 18.5 91.1 51.7 124.3 S 468.9 679 515.7 679 c 46.7 0.1 91.1 -18.4 124.3 -51.6 Z m -1.1 -125 c 0 68.2 -55.7 123.8 -123.8 123.8 c -68.2 0 -123.8 -55.7 -123.8 -123.8 c 0 -68.2 55.7 -123.8 123.8 -123.8 c 68.7 0.6 123.8 56.2 123.8 123.8 Z m 10.3 0" fill="#1bb5c4" p-id="9471"></path><path d="M 511.3 940.5 m -32.2 0 a 32.2 32.2 0 1 0 64.4 0 a 32.2 32.2 0 1 0 -64.4 0 Z" fill="#ffffff" p-id="9472"></path><path d="M 511.3 979.1 c -21.3 0 -38.6 -17.3 -38.6 -38.6 s 17.3 -38.6 38.6 -38.6 s 38.6 17.3 38.6 38.6 c 0.1 21.3 -17.3 38.6 -38.6 38.6 Z m 0 -62.3 c -13.1 0 -23.7 10.7 -23.7 23.7 c 0 13.1 10.7 23.7 23.7 23.7 s 23.7 -10.7 23.7 -23.7 c 0.1 -13.1 -10.6 -23.7 -23.7 -23.7 Z" fill="#1bb5c4" p-id="9473"></path><path d="M 511.3 76.4 m -32.6 0 a 32.6 32.6 0 1 0 65.2 0 a 32.6 32.6 0 1 0 -65.2 0 Z" fill="#ffffff" p-id="9474"></path><path d="M 511.3 115.5 c -21.5 0 -39.1 -17.5 -39.1 -39.1 s 17.5 -39.1 39.1 -39.1 s 39.1 17.5 39.1 39.1 s -17.5 39.1 -39.1 39.1 Z m 0 -64.5 c -14 0 -25.4 11.4 -25.4 25.4 s 11.4 25.4 25.4 25.4 c 14 0 25.4 -11.4 25.4 -25.4 S 525.3 51 511.3 51 Z" fill="#1bb5c4" p-id="9475"></path><path d="M 511.3 76.4 m -32.6 0 a 32.6 32.6 0 1 0 65.2 0 a 32.6 32.6 0 1 0 -65.2 0 Z" fill="#1bb5c4" p-id="9476"></path></svg>